<?xml version="1.0" encoding="UTF-8" standalone="no"?>
<!-- Created with Inkscape (http://www.inkscape.org/) -->

<svg
   width="1700"
   height="1700"
   viewBox="0 0 449.79165 449.79166"
   version="1.1"
   id="svg5"
   sodipodi:docname="Markbel.svg"
   inkscape:version="1.2.1 (9c6d41e410, 2022-07-14)"
   inkscape:export-filename="Markbel_white_rounded_1700x1700.png"
   inkscape:export-xdpi="30.719999"
   inkscape:export-ydpi="30.719999"
   xmlns:inkscape="http://www.inkscape.org/namespaces/inkscape"
   xmlns:sodipodi="http://sodipodi.sourceforge.net/DTD/sodipodi-0.dtd"
   xmlns="http://www.w3.org/2000/svg"
   xmlns:svg="http://www.w3.org/2000/svg">
  <sodipodi:namedview
     id="namedview7"
     pagecolor="#5b5b5b"
     bordercolor="#ffffff"
     borderopacity="0"
     inkscape:showpageshadow="0"
     inkscape:pageopacity="0"
     inkscape:pagecheckerboard="1"
     inkscape:deskcolor="#505050"
     inkscape:document-units="mm"
     showgrid="false"
     inkscape:zoom="0.35355339"
     inkscape:cx="1159.6551"
     inkscape:cy="1162.4836"
     inkscape:window-width="1920"
     inkscape:window-height="1051"
     inkscape:window-x="1920"
     inkscape:window-y="310"
     inkscape:window-maximized="1"
     inkscape:current-layer="layer1" />
  <defs
     id="defs2">
    <linearGradient
       id="linearGradient15427"
       inkscape:swatch="solid">
      <stop
         style="stop-color:#ff0000;stop-opacity:1;"
         offset="0"
         id="stop15425" />
    </linearGradient>
  </defs>
  <g
     inkscape:label="Layer 1"
     inkscape:groupmode="layer"
     id="layer1">
    <g
       id="g28784"
       transform="translate(13.233627,105.82903)">
      <path
         style="fill:#000000;fill-opacity:1;stroke:none;stroke-width:0;stroke-dasharray:none;paint-order:stroke fill markers"
         d="M -3.5994141e-6,238.125 132.2888,0 132.2868,71.436541 39.690911,238.125 H -3.5994141e-6"
         id="path1297" />
      <rect
         style="fill:#000000;fill-opacity:1;stroke:none;stroke-width:0;stroke-dasharray:none;stroke-opacity:1;paint-order:stroke fill markers"
         id="rect1463"
         width="39.687508"
         height="238.125"
         x="132.2888"
         y="0" />
      <path
         style="fill:#000000;fill-opacity:1;stroke:none;stroke-width:0;stroke-dasharray:none;paint-order:stroke fill markers"
         d="M 132.2888,238.125 264.57761,-2.1920166e-6 264.57561,71.436538 171.97971,238.125 H 132.2888"
         id="path1297-1" />
      <rect
         style="fill:#000000;fill-opacity:1;stroke:none;stroke-width:0;stroke-dasharray:none;stroke-opacity:1;paint-order:stroke fill markers"
         id="rect1463-5"
         width="39.687508"
         height="238.125"
         x="264.57761"
         y="-2.1920166e-06" />
      <path
         id="rect3921"
         style="stroke-width:0;paint-order:stroke fill markers"
         d="m 304.26511,198.39672 h 52.90548 v 39.72826 h -52.90548 z" />
      <rect
         style="fill:#000000;fill-opacity:1;stroke:none;stroke-width:0;stroke-dasharray:none;stroke-opacity:1;paint-order:stroke fill markers"
         id="rect3921-7"
         width="52.905479"
         height="39.728264"
         x="304.26489"
         y="-3.2322998e-06"
         ry="0" />
      <rect
         style="fill:#000000;fill-opacity:1;stroke:none;stroke-width:0;stroke-dasharray:none;stroke-opacity:1;paint-order:stroke fill markers"
         id="rect3921-6"
         width="52.905479"
         height="39.728264"
         x="304.26505"
         y="85.953506"
         ry="0" />
      <path
         style="fill:#000000;fill-opacity:1;stroke:none;stroke-width:0;stroke-linejoin:bevel;stroke-dasharray:none;stroke-opacity:1;paint-order:stroke fill markers"
         d="m 357.18054,0.03532028 c 0,0 18.60484,-0.21030203 31.3986,10.32822872 12.79377,10.53853 16.73704,18.648299 20.12323,30.605619 3.38617,11.957322 -0.0442,28.15423 -3.89517,35.963515 -3.97113,8.053071 -10.11148,16.3924 -21.87673,22.806305 -11.76526,6.413902 -25.74993,6.078672 -25.74993,6.078672 l -0.01,-19.864154 c 0,0 1.53209,-0.07927 3.73366,-0.532359 0.88805,-0.182765 2.42283,-0.792388 3.5035,-1.111311 0.85723,-0.252983 1.75347,-0.547837 2.6782,-0.906744 0.95829,-0.371935 1.70855,-0.891545 2.68737,-1.396823 1.15075,-0.594027 1.63712,-1.380249 2.54418,-2.111355 0.971,-0.782639 1.84978,-1.669697 2.57352,-2.524838 1.1665,-1.378295 2.01346,-2.674899 2.64984,-3.944834 1.24431,-2.483095 1.79944,-4.316428 1.79944,-4.316428 0,0 0.3451,-1.260641 0.59724,-3.74746 0.10804,-1.06567 0.34955,-2.146875 0.27099,-3.552591 -0.11762,-2.104736 -0.52273,-4.551419 -1.44983,-7.222621 -2.99124,-8.618473 -10.20818,-11.862096 -10.20818,-11.862096 0,0 -4.68268,-2.995787 -11.38008,-2.995787 z"
         id="path21782"
         sodipodi:nodetypes="cssssccssssssscsssccc" />
      <path
         style="fill:#000000;fill-opacity:1;stroke:none;stroke-width:0;stroke-linejoin:bevel;stroke-dasharray:none;stroke-opacity:1;paint-order:stroke fill markers"
         d="m 357.17059,198.39672 c 0,0 6.56141,-0.0248 13.91052,-3.59431 3.58599,-1.74175 7.35954,-4.32747 10.64985,-8.16611 2.88946,-3.37098 4.89484,-6.41739 6.28386,-9.06293 0.97822,-1.86313 1.65074,-3.52744 2.11107,-4.96628 1.26377,-3.95019 1.12664,-6.13484 1.12664,-6.13484 0,0 0.12333,-2.14186 -0.13794,-5.51151 -0.13631,-1.75762 -0.43126,-3.86728 -1.01328,-6.21805 -0.43977,-1.77623 -1.04344,-3.69012 -1.8664,-5.69379 -0.65127,-1.58568 -1.43989,-3.22759 -2.3933,-4.90202 -2.23802,-3.93052 -3.84308,-6.03434 -5.62414,-7.69115 -1.3834,-1.2869 -2.35705,-2.50255 -4.33192,-3.8966 -1.14026,-0.80492 -2.62072,-1.63604 -4.49504,-2.71765 -0.36205,-0.0975 -2.52169,-1.76765 -6.96995,-2.98596 -1.95886,-0.53651 -4.36153,-0.98539 -7.24994,-1.17375 V 85.953506 c 0,0 29.23603,10.442627 44.53168,25.817534 14.7262,12.21411 19.32469,34.34995 19.32469,34.34995 0,0 2.30637,9.89134 2.2974,25.85034 -0.009,16.01512 -6.87313,29.36197 -6.87313,29.36197 0,0 -6.41444,12.75436 -14.04688,18.91042 -7.63244,6.15606 -17.39598,12.72071 -24.85369,14.66381 -7.4577,1.9431 -14.41731,3.34976 -20.37998,3.21747 z"
         id="path21833"
         sodipodi:nodetypes="csssscsssssscsccccscsscc" />
    </g>
    <rect
       style="opacity:1;mix-blend-mode:overlay;fill:#ffffff;fill-opacity:1;stroke:none;stroke-width:0;stroke-linejoin:bevel;stroke-dasharray:none;stroke-opacity:1;paint-order:stroke fill markers;image-rendering:auto"
       id="rect35619"
       width="449.79166"
       height="449.79166"
       x="1.0172526e-05"
       y="0"
       ry="50.092991" />
    <g
       id="g330"
       transform="translate(13.233627,105.82903)">
      <path
         style="fill:#000000;fill-opacity:1;stroke:none;stroke-width:0;stroke-dasharray:none;paint-order:stroke fill markers"
         d="M -3.5994141e-6,238.125 132.2888,0 132.2868,71.436541 39.690911,238.125 H -3.5994141e-6"
         id="path312" />
      <rect
         style="fill:#000000;fill-opacity:1;stroke:none;stroke-width:0;stroke-dasharray:none;stroke-opacity:1;paint-order:stroke fill markers"
         id="rect314"
         width="39.687508"
         height="238.125"
         x="132.2888"
         y="0" />
      <path
         style="fill:#000000;fill-opacity:1;stroke:none;stroke-width:0;stroke-dasharray:none;paint-order:stroke fill markers"
         d="M 132.2888,238.125 264.57761,-2.1920166e-6 264.57561,71.436538 171.97971,238.125 H 132.2888"
         id="path316" />
      <rect
         style="fill:#000000;fill-opacity:1;stroke:none;stroke-width:0;stroke-dasharray:none;stroke-opacity:1;paint-order:stroke fill markers"
         id="rect318"
         width="39.687508"
         height="238.125"
         x="264.57761"
         y="-2.1920166e-06" />
      <path
         id="path320"
         style="stroke-width:0;paint-order:stroke fill markers"
         d="m 304.26511,198.39672 h 52.90548 v 39.72826 h -52.90548 z" />
      <rect
         style="fill:#000000;fill-opacity:1;stroke:none;stroke-width:0;stroke-dasharray:none;stroke-opacity:1;paint-order:stroke fill markers"
         id="rect322"
         width="52.905479"
         height="39.728264"
         x="304.26489"
         y="-3.2322998e-06"
         ry="0" />
      <rect
         style="fill:#000000;fill-opacity:1;stroke:none;stroke-width:0;stroke-dasharray:none;stroke-opacity:1;paint-order:stroke fill markers"
         id="rect324"
         width="52.905479"
         height="39.728264"
         x="304.26505"
         y="85.953506"
         ry="0" />
      <path
         style="fill:#000000;fill-opacity:1;stroke:none;stroke-width:0;stroke-linejoin:bevel;stroke-dasharray:none;stroke-opacity:1;paint-order:stroke fill markers"
         d="m 357.18054,0.03532028 c 0,0 18.60484,-0.21030203 31.3986,10.32822872 12.79377,10.53853 16.73704,18.648299 20.12323,30.605619 3.38617,11.957322 -0.0442,28.15423 -3.89517,35.963515 -3.97113,8.053071 -10.11148,16.3924 -21.87673,22.806305 -11.76526,6.413902 -25.74993,6.078672 -25.74993,6.078672 l -0.01,-19.864154 c 0,0 1.53209,-0.07927 3.73366,-0.532359 0.88805,-0.182765 2.42283,-0.792388 3.5035,-1.111311 0.85723,-0.252983 1.75347,-0.547837 2.6782,-0.906744 0.95829,-0.371935 1.70855,-0.891545 2.68737,-1.396823 1.15075,-0.594027 1.63712,-1.380249 2.54418,-2.111355 0.971,-0.782639 1.84978,-1.669697 2.57352,-2.524838 1.1665,-1.378295 2.01346,-2.674899 2.64984,-3.944834 1.24431,-2.483095 1.79944,-4.316428 1.79944,-4.316428 0,0 0.3451,-1.260641 0.59724,-3.74746 0.10804,-1.06567 0.34955,-2.146875 0.27099,-3.552591 -0.11762,-2.104736 -0.52273,-4.551419 -1.44983,-7.222621 -2.99124,-8.618473 -10.20818,-11.862096 -10.20818,-11.862096 0,0 -4.68268,-2.995787 -11.38008,-2.995787 z"
         id="path326"
         sodipodi:nodetypes="cssssccssssssscsssccc" />
      <path
         style="fill:#000000;fill-opacity:1;stroke:none;stroke-width:0;stroke-linejoin:bevel;stroke-dasharray:none;stroke-opacity:1;paint-order:stroke fill markers"
         d="m 357.17059,198.39672 c 0,0 6.56141,-0.0248 13.91052,-3.59431 3.58599,-1.74175 7.35954,-4.32747 10.64985,-8.16611 2.88946,-3.37098 4.89484,-6.41739 6.28386,-9.06293 0.97822,-1.86313 1.65074,-3.52744 2.11107,-4.96628 1.26377,-3.95019 1.12664,-6.13484 1.12664,-6.13484 0,0 0.12333,-2.14186 -0.13794,-5.51151 -0.13631,-1.75762 -0.43126,-3.86728 -1.01328,-6.21805 -0.43977,-1.77623 -1.04344,-3.69012 -1.8664,-5.69379 -0.65127,-1.58568 -1.43989,-3.22759 -2.3933,-4.90202 -2.23802,-3.93052 -3.84308,-6.03434 -5.62414,-7.69115 -1.3834,-1.2869 -2.35705,-2.50255 -4.33192,-3.8966 -1.14026,-0.80492 -2.62072,-1.63604 -4.49504,-2.71765 -0.36205,-0.0975 -2.52169,-1.76765 -6.96995,-2.98596 -1.95886,-0.53651 -4.36153,-0.98539 -7.24994,-1.17375 V 85.953506 c 0,0 29.23603,10.442627 44.53168,25.817534 14.7262,12.21411 19.32469,34.34995 19.32469,34.34995 0,0 2.30637,9.89134 2.2974,25.85034 -0.009,16.01512 -6.87313,29.36197 -6.87313,29.36197 0,0 -6.41444,12.75436 -14.04688,18.91042 -7.63244,6.15606 -17.39598,12.72071 -24.85369,14.66381 -7.4577,1.9431 -14.41731,3.34976 -20.37998,3.21747 z"
         id="path328"
         sodipodi:nodetypes="csssscsssssscsccccscsscc" />
    </g>
  </g>
</svg>
